<?xml version="1.0" encoding="utf-8"?>
<!-- Generator: Adobe Illustrator 22.1.0, SVG Export Plug-In . SVG Version: 6.00 Build 0)  -->
<svg version="1.1" id="Layer_1" xmlns="http://www.w3.org/2000/svg" xmlns:xlink="http://www.w3.org/1999/xlink" x="0px" y="0px"
	 viewBox="0 0 1014.4 323.5" style="enable-background:new 0 0 1014.4 323.5;" xml:space="preserve">
<style type="text/css">
	.st0{fill-rule:evenodd;clip-rule:evenodd;fill:#658A80;}
	.st1{fill:#3C506D;}
	.st2{fill-rule:evenodd;clip-rule:evenodd;fill:#3C506D;}
</style>
<g>
	<path class="st0" d="M123.3,318C54.9,299.7,7.8,241.4,0,175c-0.1-3.1,0.2-6,3.2-7.7c1.3-0.8,2.9-1.1,4.4-1c2.7,0.3,4.4,2.2,6.1,4.3
		c34.5,50.7,81.8,74,126.7,85c7.1,1.7,16.1,3.3,19.1-3.8c3.1-7.1-0.5-9.2-6.7-13.1C88.9,198.6,45.5,134.3,30.7,64.9
		c-0.9-3.4,0.1-7,3.2-8.7c1.6-1,3.5-1.2,5.4-0.8c2.2,0.6,3.7,2.4,4.8,4.2c32.3,48.9,79.5,89,130.6,116.3
		c33.2,17.7,70.5,30.9,108.5,33.2c15.1,0.9,35.4,0.5,45.5-10.2c-1,3.9-3.6,12.5-3.8,13C296.8,293.5,206.2,340.2,123.3,318"/>
	<path class="st1" d="M822.1,323.5h-0.2c-37.2,0-62.3-7.5-68.7-49.6l-23.5-155.1H758c55.2,0,59.7,12.3,65.4,56.3l12.2,93.5l94-149.3
		h84.8l-99,154.6C888.2,316.1,859.4,323.5,822.1,323.5"/>
	<path class="st1" d="M596.7,323.5h73.6l42.5-204.7H588.6l-46.2,110.1h-0.6L540,118.8h-44.5c-41.7,0-74,5.6-85.9,63.1l-29.4,141.6
		h73.6l30.3-146.3h0.6l9.2,146.3h62.8l69.8-146.3h0.6L596.7,323.5z"/>
	<path class="st2" d="M102.1,9.6c-0.7-2.9-0.4-5.4,1.8-7.6c1.2-1.1,3.1-1.8,4.8-1.9c1.3-0.1,2.6,0.2,3.7,1c1.1,0.7,2.1,1.7,2.9,2.9
		c24.9,38.7,72.8,80.9,128.8,102.5c27.7,10.7,52.7,8,46.1-29.2c-1.2-6.7-3.3-13.7-5.9-20.4c-0.6-1.2-0.5-2.7-0.1-4
		c0.5-1.9,1.7-3.5,3.3-4.4c1.6-1,3.5-1.2,5.4-0.8c1.6,0.5,3.1,1.4,3.9,2.7c25.2,31.1,38.3,69.8,37.4,109.6c-0.2,8.6-1.7,15.9-5.5,21
		c-12.2,16.2-41.9,9.4-59,4.2C185.5,159.4,120.1,87.9,102.1,9.6"/>
</g>
</svg>
